<svg xmlns="http://www.w3.org/2000/svg" viewBox="0 0 24 24"><defs><style>.cls-1{fill:#323c46;}</style></defs><g id="レイヤー_2" data-name="レイヤー 2"><g id="レイヤー_1-2" data-name="レイヤー 1"><path class="cls-1" d="M12,0A12,12,0,1,0,24,12,12,12,0,0,0,12,0Zm5.5,17.31a.75.75,0,0,1-1,.25c-2.81-1.73-6.36-2.11-10.54-1.16A.74.74,0,0,1,5,15.84a.75.75,0,0,1,.56-.9c4.57-1,8.49-.59,11.66,1.34A.75.75,0,0,1,17.5,17.31ZM19,14a.94.94,0,0,1-1.29.31A15.73,15.73,0,0,0,5.73,13a.94.94,0,0,1-.55-1.79,17.54,17.54,0,0,1,13.48,1.59A.94.94,0,0,1,19,14Zm.13-3.4C15.23,8.34,8.85,8.13,5.16,9.25A1.12,1.12,0,1,1,4.51,7.1c4.23-1.28,11.28-1,15.73,1.61a1.12,1.12,0,1,1-1.14,1.93Z"/></g></g></svg>