<?xml version="1.0" standalone="no"?>
<!DOCTYPE svg PUBLIC "-//W3C//DTD SVG 20010904//EN"
 "http://www.w3.org/TR/2001/REC-SVG-20010904/DTD/svg10.dtd">
<svg version="1.0" xmlns="http://www.w3.org/2000/svg"
 width="500.000000pt" height="88.000000pt" viewBox="0 0 500.000000 88.000000"
 preserveAspectRatio="xMidYMid meet">

<g transform="translate(0.000000,88.000000) scale(0.100000,-0.100000)"
fill="#000000" stroke="none">
<path d="M7 833 c-4 -3 -7 -179 -7 -390 l0 -383 350 0 350 0 -2 388 -3 387
-341 3 c-187 1 -343 -1 -347 -5z m673 -383 l0 -370 -330 0 -330 0 0 370 0 370
330 0 330 0 0 -370z"/>
<path d="M50 445 l0 -335 25 0 25 0 0 335 0 335 -25 0 -25 0 0 -335z"/>
<path d="M140 775 c0 -8 229 -626 237 -638 6 -10 143 318 142 342 0 9 -24 79
-52 156 l-53 140 -137 3 c-75 1 -137 0 -137 -3z"/>
<path d="M443 768 c2 -7 24 -66 48 -130 24 -65 47 -114 51 -110 3 4 29 62 57
130 l50 122 -106 0 c-80 0 -104 -3 -100 -12z"/>
<path d="M130 412 l0 -302 115 0 114 0 -28 78 c-16 42 -66 176 -111 297 -45
121 -84 222 -86 224 -2 2 -4 -131 -4 -297z"/>
<path d="M637 688 c-3 -7 -24 -58 -46 -112 l-41 -99 0 -184 0 -183 50 0 50 0
0 295 c0 162 -2 295 -4 295 -2 0 -6 -6 -9 -12z"/>
<path d="M507 365 c-30 -66 -97 -235 -97 -245 0 -15 110 -12 116 3 2 7 3 74 2
148 l-3 134 -18 -40z"/>
<path d="M3965 607 c-40 -19 -90 -76 -105 -122 -20 -61 -8 -140 26 -176 56
-60 141 -83 212 -58 25 8 35 7 56 -6 14 -10 26 -16 27 -14 0 2 3 40 6 84 3 48
10 86 19 96 8 8 14 19 14 22 0 4 -34 7 -75 7 -74 0 -105 -16 -42 -22 31 -3 32
-4 35 -55 3 -46 0 -54 -23 -69 -19 -13 -38 -15 -76 -11 -65 8 -103 36 -125 93
-15 39 -15 52 -5 99 17 77 55 115 114 115 34 0 53 -6 76 -26 17 -14 31 -32 31
-40 0 -16 26 -19 34 -5 11 17 -13 60 -42 75 -43 22 -122 29 -157 13z"/>
<path d="M975 591 c-3 -5 4 -12 15 -16 19 -6 20 -15 20 -155 0 -122 -3 -149
-15 -154 -34 -13 -12 -26 45 -26 62 0 71 5 45 24 -11 8 -16 45 -21 152 -7 138
-6 142 15 153 11 7 21 16 21 21 0 13 -117 13 -125 1z"/>
<path d="M1890 590 c0 -6 7 -13 15 -16 12 -5 15 -32 15 -155 0 -124 -3 -151
-15 -155 -34 -13 -11 -24 50 -24 63 0 86 12 45 23 -18 5 -20 14 -20 81 l0 76
39 0 c28 0 44 -6 54 -20 8 -11 17 -17 20 -13 9 8 9 66 0 88 -5 16 -8 15 -22
-4 -9 -12 -33 -24 -52 -27 l-36 -6 -7 46 c-12 77 -4 87 62 84 51 -3 58 -6 79
-37 26 -38 37 -27 31 31 l-3 33 -127 3 c-85 2 -128 -1 -128 -8z"/>
<path d="M2830 455 c0 -31 -4 -35 -36 -44 -54 -15 -84 -47 -84 -91 0 -62 17
-74 104 -76 70 -1 91 6 66 21 -14 9 -13 192 1 201 14 8 -8 24 -33 24 -14 0
-18 -8 -18 -35z m-2 -122 c-3 -50 -6 -58 -24 -61 -47 -7 -72 62 -37 100 9 10
27 18 40 18 23 0 24 -3 21 -57z"/>
<path d="M3161 479 c-19 -7 -22 -12 -13 -21 15 -15 17 -198 2 -198 -5 0 -10
-4 -10 -10 0 -5 18 -10 40 -10 22 0 40 5 40 10 0 6 -4 10 -10 10 -6 0 -10 43
-10 109 0 61 -3 112 -7 114 -5 3 -19 1 -32 -4z"/>
<path d="M3680 435 c-5 -14 -17 -28 -25 -31 -19 -8 -19 -24 0 -24 12 0 15 -14
15 -65 0 -52 4 -67 16 -72 22 -8 48 9 52 36 4 25 -15 29 -21 4 -3 -10 -5 8 -6
40 -1 44 2 57 14 57 8 0 15 5 15 10 0 6 -7 13 -15 16 -8 4 -15 14 -15 24 0 30
-19 33 -30 5z"/>
<path d="M4324 442 c-29 -4 -58 -37 -51 -57 9 -23 26 -18 37 11 7 19 16 25 32
22 13 -2 24 -11 26 -20 2 -13 -8 -20 -40 -28 -49 -13 -68 -32 -68 -70 0 -49
53 -75 100 -50 13 7 21 7 25 0 8 -13 55 -13 55 0 0 6 -4 10 -9 10 -4 0 -11 34
-13 75 -3 41 -10 81 -17 89 -13 15 -45 23 -77 18z m46 -127 c0 -28 -4 -36 -24
-41 -32 -8 -46 2 -46 30 0 28 18 46 47 46 20 0 23 -5 23 -35z"/>
<path d="M4515 433 c-30 -7 -41 -21 -22 -29 13 -5 17 -20 17 -69 0 -35 -4 -67
-10 -70 -22 -13 -8 -25 30 -25 38 0 52 12 30 25 -5 3 -10 30 -10 59 0 56 17
83 45 72 21 -8 22 -124 0 -132 -26 -10 -5 -24 36 -24 37 0 51 12 29 25 -5 3
-10 31 -10 60 0 43 4 56 19 65 36 19 41 12 41 -55 0 -49 -4 -67 -15 -71 -26
-10 -5 -24 36 -24 37 0 51 12 29 25 -5 3 -10 35 -10 70 0 35 -3 70 -6 79 -8
20 -53 21 -81 1 -19 -13 -22 -13 -27 1 -4 11 -16 15 -40 13 -19 -2 -38 0 -42
4 -4 4 -10 6 -13 6 -3 -1 -15 -3 -26 -6z"/>
<path d="M4829 411 c-23 -24 -29 -38 -29 -74 0 -38 5 -49 31 -71 45 -38 101
-36 141 5 22 22 28 33 20 41 -8 8 -19 2 -41 -20 -16 -18 -34 -32 -41 -32 -19
0 -49 20 -60 40 -9 17 -4 21 50 36 81 23 90 35 52 74 -41 40 -83 40 -123 1z
m85 -7 c24 -24 20 -31 -29 -47 l-45 -16 0 24 c0 13 10 31 22 39 28 20 33 20
52 0z"/>
<path d="M1107 423 c-4 -3 0 -14 8 -23 8 -9 26 -48 39 -86 32 -95 49 -96 77
-2 12 40 28 78 36 85 21 16 7 33 -27 33 -34 0 -47 -15 -24 -28 14 -8 15 -14 4
-48 -19 -58 -26 -60 -40 -10 -9 34 -10 49 -1 59 6 8 8 17 4 20 -8 9 -68 9 -76
0z"/>
<path d="M1325 421 c-3 -6 2 -14 12 -20 10 -5 26 -33 36 -63 25 -79 25 -83 -3
-83 -36 0 -35 -39 1 -43 29 -3 38 11 79 120 12 32 28 62 37 67 21 11 8 31 -22
31 -26 0 -41 -15 -26 -25 10 -5 -4 -61 -19 -78 -13 -15 -34 62 -21 77 6 7 8
16 4 19 -10 11 -71 8 -78 -2z"/>
<path d="M2165 405 c-25 -11 -27 -14 -12 -20 13 -6 17 -19 17 -66 0 -33 -4
-59 -10 -59 -5 0 -10 -4 -10 -10 0 -5 19 -10 42 -10 39 0 40 1 25 18 -22 25
-21 84 1 112 21 25 42 20 42 -10 0 -26 15 -33 30 -15 20 24 -13 67 -48 64 -15
-2 -32 0 -37 3 -6 3 -23 0 -40 -7z"/>
<path d="M2345 400 c-13 -15 -15 -24 -8 -31 14 -14 33 -3 33 17 0 22 44 14 48
-8 2 -13 -3 -18 -18 -18 -24 0 -61 -17 -72 -34 -13 -19 -9 -52 10 -69 12 -11
33 -14 77 -12 74 4 71 3 57 17 -7 7 -12 36 -12 66 0 74 -12 92 -59 92 -25 0
-44 -7 -56 -20z m73 -92 c-2 -27 -8 -34 -29 -36 -20 -2 -28 2 -32 18 -6 24 16
50 44 50 17 0 20 -6 17 -32z"/>
<path d="M2496 411 c-3 -5 1 -11 9 -15 11 -4 15 -21 15 -61 0 -42 5 -60 20
-75 19 -19 32 -20 135 -11 5 1 4 6 -3 13 -14 14 -16 128 -2 128 6 0 10 7 10
15 0 10 -10 15 -34 15 -35 0 -55 -13 -37 -24 15 -10 23 -83 11 -105 -12 -23
-40 -27 -58 -9 -14 14 -16 108 -2 108 6 0 10 7 10 15 0 17 -65 22 -74 6z"/>
<path d="M2915 411 c-3 -5 -1 -12 5 -16 5 -3 10 -26 10 -51 0 -45 13 -83 34
-96 13 -8 124 -3 133 6 4 3 2 6 -4 6 -6 0 -14 28 -18 61 -6 52 -5 63 9 71 25
14 9 28 -30 28 -35 0 -42 -8 -23 -27 5 -5 9 -34 7 -64 -3 -53 -4 -54 -33 -54
-29 0 -30 1 -33 53 -2 30 2 59 7 66 6 7 8 16 4 19 -10 10 -61 8 -68 -2z"/>
<path d="M3303 413 c-49 -9 -79 -85 -52 -135 14 -26 67 -48 102 -41 30 6 70
49 61 65 -4 6 -17 -1 -31 -16 -29 -32 -63 -33 -89 -5 -21 24 -25 21 55 49 52
17 58 29 34 58 -20 23 -47 31 -80 25z m47 -27 c0 -2 3 -11 6 -19 3 -10 -3 -17
-19 -21 -14 -3 -32 -9 -41 -12 -19 -7 -22 26 -4 44 11 11 58 17 58 8z"/>
<path d="M3455 406 c-25 -12 -27 -15 -12 -21 13 -6 17 -19 17 -66 0 -33 -4
-59 -10 -59 -5 0 -10 -4 -10 -10 0 -5 18 -10 40 -10 36 0 55 13 30 22 -6 2
-13 19 -16 39 -5 29 -2 41 15 58 32 32 46 21 49 -37 2 -40 -1 -54 -12 -58 -25
-10 -8 -24 30 -24 32 0 45 12 25 25 -6 3 -7 27 -4 54 3 28 1 57 -6 69 -12 23
-45 29 -70 13 -10 -6 -18 -5 -25 4 -9 11 -16 12 -41 1z"/>
<path d="M1585 366 c-13 -14 -18 -29 -13 -37 4 -8 10 -31 13 -51 4 -28 11 -38
24 -38 11 0 22 7 25 16 9 23 8 27 -9 20 -22 -8 -20 43 3 60 16 12 16 13 0 14
-9 0 -18 9 -20 20 -3 18 -4 18 -23 -4z"/>
<path d="M1703 360 c-49 -20 -54 -87 -8 -108 37 -17 62 -15 85 8 49 49 -10
127 -77 100z m57 -31 c17 -31 4 -69 -23 -69 -29 0 -47 18 -47 45 0 44 50 61
70 24z"/>
</g>
</svg>
