<svg xmlns="http://www.w3.org/2000/svg" viewBox="0 0 24 24"><defs><style>.cls-1{fill:#fff;}</style></defs><g id="レイヤー_2" data-name="レイヤー 2"><g id="レイヤー_1-2" data-name="レイヤー 1"><path class="cls-1" d="M18.8,0H5.2A5.2,5.2,0,0,0,0,5.2V18.8A5.2,5.2,0,0,0,5.2,24H18.8A5.2,5.2,0,0,0,24,18.8V5.2A5.2,5.2,0,0,0,18.8,0Zm0,15.31A28.29,28.29,0,0,1,12,20.38c-.93.39-.79-.25-.76-.47s.13-.75.13-.75a1.76,1.76,0,0,0,0-.79c-.1-.24-.48-.37-.77-.43-4.2-.55-7.31-3.49-7.31-7C3.22,7,7.14,3.85,12,3.85S20.7,7,20.7,10.94a6.34,6.34,0,0,1-1.87,4.37Z"/><rect class="cls-1" x="9.4" y="9.06" width="0.95" height="4.15" rx="0.17"/><path class="cls-1" d="M8.71,12.25H7v-3a.16.16,0,0,0-.17-.17H6.26a.17.17,0,0,0-.17.17V13h0a.17.17,0,0,0,0,.12h0a.21.21,0,0,0,.12,0H8.71A.17.17,0,0,0,8.88,13v-.61A.18.18,0,0,0,8.71,12.25Z"/><path class="cls-1" d="M14.4,9.06h-.61a.17.17,0,0,0-.17.17v2.26L11.88,9.13l0,0h-.74a.17.17,0,0,0-.17.17V13a.17.17,0,0,0,.17.17h.61a.17.17,0,0,0,.18-.17V10.77l1.74,2.36a.1.1,0,0,0,0,0h.7a.16.16,0,0,0,.17-.17V9.23A.16.16,0,0,0,14.4,9.06Z"/><path class="cls-1" d="M17.79,9.06H15.34a.16.16,0,0,0-.12,0h0a.17.17,0,0,0-.05.12h0V13h0a.17.17,0,0,0,.05.12h0a.17.17,0,0,0,.12,0h2.45A.17.17,0,0,0,18,13v-.61a.18.18,0,0,0-.17-.17H16.12v-.64h1.67a.18.18,0,0,0,.17-.17v-.62a.18.18,0,0,0-.17-.17H16.12V10h1.67A.18.18,0,0,0,18,9.84V9.23A.17.17,0,0,0,17.79,9.06Z"/></g></g></svg>