<svg xmlns="http://www.w3.org/2000/svg" viewBox="0 0 24 24"><defs><style>.cls-1{fill:#323c46;}</style></defs><g id="レイヤー_2" data-name="レイヤー 2"><g id="レイヤー_1-2" data-name="レイヤー 1"><path class="cls-1" d="M24,6.12a9.54,9.54,0,0,0-.24-2.19,4.91,4.91,0,0,0-2.18-3A5.15,5.15,0,0,0,19.7.16,11.76,11.76,0,0,0,18.14,0H6L5.53,0a6.84,6.84,0,0,0-2.19.4A5,5,0,0,0,.47,3.21,5.62,5.62,0,0,0,.11,4.62,9.24,9.24,0,0,0,0,5.8s0,.06,0,.09V18.11l0,.43a6.65,6.65,0,0,0,.49,2.37,5,5,0,0,0,3.24,2.8,6.23,6.23,0,0,0,1.29.23c.55,0,1.11.06,1.67.06h11a11.93,11.93,0,0,0,1.57-.1,5.39,5.39,0,0,0,2.29-.81,5,5,0,0,0,2.25-3.53,11.66,11.66,0,0,0,.14-2V6.12m-6.43,4v5.72a2.63,2.63,0,0,1-.24,1.2,2.12,2.12,0,0,1-1.39,1.14,4.79,4.79,0,0,1-1.07.18,1.87,1.87,0,0,1-.9-3.56,4.5,4.5,0,0,1,1-.33l1.13-.24a.6.6,0,0,0,.51-.51,1.23,1.23,0,0,0,0-.2V8.07a.57.57,0,0,0,0-.18.29.29,0,0,0-.3-.24,4,4,0,0,0-.48.07l-2.27.46-2.33.47-1.38.27,0,0a.44.44,0,0,0-.39.49.56.56,0,0,0,0,.13c0,2.6,0,5.2,0,7.8a3,3,0,0,1-.21,1.23,2.12,2.12,0,0,1-1.44,1.23A4.89,4.89,0,0,1,6.7,20a1.85,1.85,0,0,1-1.92-1.55,1.88,1.88,0,0,1,1.15-2.08A6.1,6.1,0,0,1,7,16.06l.86-.17a.71.71,0,0,0,.6-.72v-9a1.55,1.55,0,0,1,0-.37.71.71,0,0,1,.55-.52l.77-.16,2.2-.45,2.27-.45,2-.41a5.16,5.16,0,0,1,.67-.1.49.49,0,0,1,.55.48,1.62,1.62,0,0,1,0,.22v5.73Z"/></g></g></svg>